<svg width="98" height="29" viewBox="0 0 98 29" xmlns="http://www.w3.org/2000/svg">
  <title>
    stealz logo
  </title>
  <g fill="none" fill-rule="evenodd">
    <path d="M28.327 23.062c0 3.27-2.597 5.923-5.8 5.923H5.8c-3.203 0-5.8-2.652-5.8-5.923V5.985C0 2.713 2.597.06 5.8.06h16.726c3.204 0 5.8 2.653 5.8 5.925v17.077zm-2.924-8.54c0-6.337-5.032-11.475-11.24-11.475-6.207 0-11.24 5.138-11.24 11.476C2.924 20.86 7.957 26 14.164 26c6.208 0 11.24-5.14 11.24-11.477z" fill="#FFF"/>
    <path d="M25.403 14.523C25.403 20.86 20.37 26 14.163 26c-6.207 0-11.24-5.14-11.24-11.477 0-6.338 5.033-11.476 11.24-11.476 6.208 0 11.24 5.138 11.24 11.476z"/>
    <path d="M15.987 6.497c-.042 0-.078.003-.108.003h-.008c-.135.002-.32.004-.42.097-.087.08-.127.21-.158.337-.053.217-.08.43-.112.657l-.012.096-.015.107c-.023.178-.046.363-.088.542l-.002.01c-.016.077-.04.16-.1.162-.856.028-1.64.354-2.206.92-.28.28-.502.612-.656.983-.158.384-.24.8-.244 1.24-.003.296.05.572.16.844.1.243.244.477.44.715.368.444.87.836 1.353 1.215.237.187.483.378.71.575.205.15.4.325.58.525.13.142.248.292.352.447.42.576.61 1.143.605 1.786-.004.483-.163.95-.445 1.32-.206.27-.495.475-.885.63-.34.137-.703.214-1.046.278h-.003l-.022.002c-.108.013-.217.02-.323.018-.145-.002-.292-.016-.44-.042h.003c-.494-.077-.945-.3-1.27-.624-.33-.332-.51-.752-.506-1.185.003-.476.225-.923.623-1.26.166-.168.363-.286.585-.354.14-.042.288-.062.443-.063 0-.007-.002-.015-.004-.024-.025-.134-.122-.258-.277-.348-.176-.103-.42-.16-.702-.162-.453-.004-.875.192-1.19.55-.158.183-.284.4-.372.65-.093.26-.142.546-.144.85-.008.895.24 1.586.74 2.057.43.407 1.05.65 1.84.725.012 0 .023.007.03.017.006.008.01.02.01.028v.007s-.27 1.625-.285 1.723l.562.005.404-1.714c.005-.02.022-.034.043-.033 1.26-.013 2.325-.332 3.085-.922.39-.303.69-.675.9-1.104.215-.448.328-.96.333-1.52.008-.865-.262-1.605-.826-2.265-.496-.58-1.158-1.026-1.742-1.42l-.095-.065c-.367-.253-.683-.515-.915-.762-.01-.002-.017-.006-.023-.013-.464-.483-.677-.97-.672-1.536.004-.4.097-.786.265-1.088.21-.375.518-.622.92-.733.186-.06.38-.09.573-.088.3.002.597.08.854.225.288.162.507.392.638.667.086.183.13.377.127.576-.002.277-.094.546-.266.78-.09.15-.203.272-.337.36.305.382.528.514.866.517.335.003.617-.162.815-.48.2-.32.31-.78.313-1.33.006-.612-.205-1.096-.628-1.442-.335-.274-.808-.467-1.41-.573-.01-.002-.02-.01-.028-.02-.005-.007-.008-.016-.007-.024v-.01c.05-.215.112-.427.172-.633.073-.25.15-.51.202-.775.007-.037.018-.08.03-.124.025-.092.053-.196.054-.285 0-.065-.015-.114-.046-.147-.05-.052-.176-.08-.37-.082-.08 0-.156.004-.225.007M45.612.1l-.195.01h-.012c-.242.004-.575.01-.752.18-.153.144-.224.376-.278.606-.09.39-.138.775-.188 1.18l-.02.17-.025.193c-.038.32-.078.652-.15.973l-.003.018c-.03.14-.068.29-.178.294-1.536.064-2.935.663-3.942 1.69-.5.51-.888 1.106-1.157 1.773-.28.69-.42 1.442-.42 2.23 0 .53.1 1.025.304 1.51.182.434.444.852.8 1.276.668.792 1.573 1.487 2.447 2.158.43.33.874.67 1.282 1.018.37.265.724.578 1.05.933.236.254.45.522.64.797.76 1.026 1.114 2.04 1.114 3.193 0 .866-.275 1.71-.775 2.377-.364.485-.88.86-1.577 1.146-.61.25-1.26.396-1.87.515H41.7l-.04.005c-.193.026-.39.037-.58.037-.26 0-.524-.022-.787-.068h.002c-.887-.128-1.7-.517-2.29-1.096-.597-.59-.927-1.34-.927-2.117 0-.856.39-1.662 1.098-2.274.294-.302.646-.518 1.044-.644.25-.078.515-.12.792-.122 0-.013-.003-.027-.006-.042-.045-.24-.222-.462-.5-.62-.32-.18-.757-.278-1.264-.278-.814 0-1.568.358-2.125 1.008-.283.33-.505.723-.658 1.17-.163.468-.246.983-.246 1.53 0 1.605.458 2.84 1.36 3.675.782.723 1.897 1.15 3.315 1.27.02 0 .04.01.054.03.01.013.017.032.017.05v.012l-.48 3.095h1.01c.026-.12.696-3.082.696-3.082.008-.037.04-.062.076-.062 2.26-.045 4.168-.636 5.52-1.708.693-.55 1.23-1.222 1.596-1.996.38-.81.574-1.73.574-2.737 0-1.55-.498-2.873-1.52-4.046-.9-1.032-2.095-1.823-3.15-2.52l-.17-.113c-.663-.446-1.235-.912-1.656-1.35-.016-.004-.03-.012-.04-.023-.84-.86-1.232-1.73-1.232-2.745 0-.716.162-1.41.458-1.956.368-.677.92-1.124 1.64-1.33h-.003c.333-.11.678-.167 1.026-.167.54 0 1.072.134 1.537.39.517.284.915.694 1.154 1.185.157.327.24.673.24 1.03 0 .498-.162.983-.466 1.405-.158.27-.36.49-.597.65.555.682.957.914 1.564.914.6 0 1.104-.3 1.453-.875.352-.577.54-1.405.54-2.392 0-1.096-.388-1.962-1.152-2.575-.606-.486-1.46-.823-2.537-1.003-.02-.004-.04-.016-.053-.034-.01-.013-.013-.028-.013-.044v-.018c.086-.386.194-.768.3-1.138.126-.45.258-.918.348-1.394.012-.067.032-.143.052-.223.043-.165.09-.352.09-.51 0-.12-.027-.21-.083-.266-.09-.094-.316-.14-.666-.14-.14 0-.28.006-.402.013m35.423 6.16c-.823 2.126-1.586 5.106-2.266 8.86-.336 1.763-.556 3.352-.653 4.722 0 .01-.004.02-.008.03-1.537 3.202-2.337 4.393-2.95 4.393-.165 0-.3-.09-.39-.26-.08-.15-.122-.362-.122-.612 0-.935.4-2.56.908-4.616.322-1.306.687-2.785 1.014-4.352.03-.152.03-.3.03-.46 0-.65-.292-1.064-.537-1.296-.3-.287-.708-.458-1.087-.458h-.186c-.043 0-.077-.033-.08-.075-.03-.506-.25-1.064-.58-1.494-.27-.352-.737-.772-1.416-.772-.722 0-1.442.304-2.138.9-.645.553-1.256 1.34-1.817 2.343-.52.927-.987 2.035-1.356 3.21-.358 1.136-.624 2.34-.77 3.477 0 .01-.005.02-.01.03l-.114.198c-.442.763-1.047 1.807-1.872 2.667-.452.47-.928.84-1.413 1.092-.57.296-1.17.446-1.79.446-.872 0-1.484-.48-1.815-1.43-.272-.777-.307-1.716-.307-2.446 0-.027.01-.05.032-.066.013-.01.03-.015.047-.015.008 0 .016 0 .023.004.388.12.786.185 1.154.185 1.458 0 2.853-.88 3.922-2.48.933-1.394 1.513-3.213 1.513-4.747 0-.782-.154-1.45-.446-1.935-.315-.52-.778-.822-1.376-.895-.015-.002-.03-.008-.04-.018-.36-.305-1.066-.52-1.716-.52-1.382 0-2.772 1.15-3.916 3.234-1.042 1.903-1.75 4.394-1.895 6.664-.002.012-.005.025-.01.035-.138.24-.29.517-.45.81-.45.822-.96 1.753-1.487 2.497-.626.884-1.148 1.314-1.598 1.314-.484 0-.73-.474-.73-1.41 0-2.08 1.223-6.395 2.302-10.202l.334-1.178c.01-.032.036-.055.068-.058 1.153-.13 1.985-.27 2.54-.433.66-.192.797-.377.797-.5 0-.097-.13-.238-.757-.356-.498-.093-1.173-.15-1.89-.208l-.223-.02c-.024 0-.045-.014-.06-.034-.01-.014-.013-.03-.013-.046 0-.007 0-.014.003-.022.078-.293.165-.597.25-.89.284-.998.553-1.94.553-2.536 0-.47-.17-.86-.487-1.133-.276-.235-.656-.37-1.046-.37-.615 0-1.063.275-1.194.733v.002c-.35 1.128-.704 2.385-1.146 4.078-.01.035-.04.06-.077.06h-.005c-.493-.032-.98-.032-1.45-.032-.288 0-.48.467-.48.9 0 .34.12.746.456.775l.99.094c.024.002.044.014.058.034.01.013.015.03.015.046v.02c-1.13 4.706-1.858 9.044-1.858 11.052 0 1.092.217 1.924.645 2.47.364.462.885.707 1.506.707.793 0 1.622-.505 2.464-1.5.625-.738 1.244-1.728 1.842-2.943.012-.028.04-.045.07-.045.005 0 .01 0 .014.002.036.006.062.036.065.073.11 1.323.466 2.42 1.026 3.175.628.842 1.503 1.27 2.603 1.27 1.32 0 2.527-.397 3.58-1.178.94-.697 1.785-1.72 2.515-3.043.014-.026.04-.04.07-.04.006 0 .012 0 .02.002.035.008.058.04.058.078.007 1.247.204 2.28.568 2.99.397.77.982 1.16 1.74 1.16.456 0 .984-.32 1.525-.923.537-.598 1.088-1.478 1.594-2.543.014-.028.04-.045.072-.045.007 0 .015 0 .022.002.034.01.056.042.056.077v.01c-.032.216-.032.432-.032.59 0 1.038.227 1.805.674 2.28.422.45.97.546 1.355.55 1.54 0 2.937-2.288 3.836-4.207.014-.03.042-.045.073-.045H78c.037.01.064.04.065.078.038 1.385.257 2.403.67 3.113.222.374.5.66.83.852.347.2.76.302 1.233.302.522 0 1.074-.158 1.638-.47.512-.282 1.037-.69 1.56-1.215.902-.906 1.777-2.13 2.463-3.45 0-.004.002-.006.003-.006.175-.278.32-.62.43-.868.04-.093.072-.174.1-.232.333-.69.643-1.453.976-2.395.158-.45.305-.898.468-1.4.164-.508.385-1.18.633-1.85l.007-.013c.204-.34.538-.648.942-.87.47-.257 1.028-.394 1.613-.394h3.13c.03 0 .057.018.07.044.007.012.01.025.01.037 0 .017-.005.034-.016.048-.36.512-8.797 12.533-9.063 12.883-.035.044-.053.084-.053.11 0 .066.14.13.405.13.226 0 .49-.05.707-.13.872-.332 1.7-.49 2.526-.49 1.218 0 2.194.35 3.054.66.656.235 1.223.44 1.762.44.602 0 1.21-.258 1.715-.727.493-.46.85-1.088 1.002-1.763.086-.376.13-.745.13-1.1 0-.547-.106-.907-.18-1.044-.04.34-.216.866-.528 1.302-.278.39-.77.854-1.526.854h-5.086c-.032 0-.057-.017-.07-.045-.007-.01-.01-.022-.01-.035 0-.017.005-.034.016-.048l3.375-4.717c3.45-4.818 3.893-5.438 4.333-6.136.458-.71.592-1.373.627-1.605h-7.95c-.824 0-1.346.39-1.636.72-.36.406-.574.956-.574 1.472 0 .1.007.2.023.294.04.232.128.403.27.523.018.015.028.038.028.06 0 .01 0 .018-.003.025-.547 1.825-1.063 3.55-1.896 5.42l-.004.005c-.602 1.1-1.326 2.098-2.037 2.816-.4.403-.795.718-1.175.935-.416.24-.816.36-1.186.36-.466 0-.797-.17-1.013-.523-.208-.336-.308-.842-.308-1.55 0-.927.137-2.283.403-4.03.007-.04.04-.068.08-.068h.007c.083.008.164.012.242.012.826 0 1.626-.43 2.377-1.278.673-.76 1.288-1.824 1.83-3.168.48-1.194.882-2.57 1.163-3.976.266-1.336.406-2.612.406-3.69 0-.985-.12-1.677-.372-2.177-.244-.484-.602-.74-.953-.947-.01-.006-.018-.014-.025-.025-.204-.296-.646-.596-1.174-.596-1.243 0-2.404 1.372-3.45 4.077m.034 11.16c-.026-.014-.042-.042-.042-.07l.002-.013c.487-2.934 1.24-6.313 2.02-9.04.41-1.437.797-2.594 1.153-3.444.4-.96.74-1.47 1.033-1.562.008-.002.016-.002.023-.002.015 0 .03.003.04.012.02.012.035.032.038.055.062.374.095.85.095 1.373 0 1.904-.455 4.563-1.186 6.94-.844 2.75-1.943 4.792-3.09 5.745-.012.012-.03.018-.048.018-.016 0-.03-.002-.04-.01m-21.64 2.16c-.034-.012-.056-.044-.056-.078v-.007c.183-1.864.772-3.99 1.576-5.69.402-.852.846-1.56 1.28-2.045.486-.543.96-.817 1.406-.817.606 0 .606.79.606 1.125 0 1.194-.61 3.038-1.556 4.7-.466.818-.97 1.51-1.46 2.004-.557.56-1.07.843-1.524.843-.098 0-.17 0-.273-.036m9.83 3.925c-.085-.27-.127-.657-.127-1.156 0-1.704.497-4.43 1.21-6.635.502-1.557 1.54-4.17 2.835-4.17.363 0 .62.15.768.442.132.267.148.607.148.84 0 .005 0 .01-.002.016L73.1 17.4c-.39 1.767-.925 3.398-1.51 4.593-.44.907-1.12 1.987-1.85 1.987-.22 0-.38-.16-.48-.475" fill="#FFF"/>
  </g>
</svg>
